<?xml version="1.0" standalone="no"?>
<!DOCTYPE svg PUBLIC "-//W3C//DTD SVG 20010904//EN"
 "http://www.w3.org/TR/2001/REC-SVG-20010904/DTD/svg10.dtd">
<svg version="1.0" xmlns="http://www.w3.org/2000/svg"
 width="100.000000pt" height="100.000000pt" viewBox="0 0 100.000000 100.000000"
 preserveAspectRatio="xMidYMid meet">
<metadata>
Created by potrace 1.16, written by Peter Selinger 2001-2019
</metadata>
<g transform="translate(0.000000,100.000000) scale(0.024038,-0.024038)"
fill="#000000" stroke="none">
<path d="M1951 3330 c-193 -41 -353 -147 -480 -319 -202 -272 -209 -576 -21
-906 45 -79 610 -837 629 -843 5 -2 146 179 314 402 325 434 372 509 423 681
34 114 38 291 10 395 -39 144 -127 282 -260 408 -128 121 -276 181 -461 188
-60 1 -130 -1 -154 -6z m254 -285 c381 -100 510 -574 231 -849 -100 -99 -216
-146 -356 -146 -139 0 -263 53 -362 153 -163 165 -190 436 -63 624 125 186
343 272 550 218z"/>
<path d="M2001 2819 c-111 -34 -191 -144 -191 -265 0 -150 120 -274 265 -274
107 0 208 62 251 154 49 106 22 254 -58 321 -74 62 -185 89 -267 64z"/>
<path d="M1710 1526 c-136 -50 -254 -152 -285 -245 -47 -143 35 -282 220 -371
135 -66 231 -84 435 -84 204 0 300 18 435 84 185 89 267 228 220 371 -32 94
-152 197 -287 245 l-38 13 -50 -66 c-28 -36 -50 -69 -50 -73 0 -4 15 -11 33
-14 46 -9 146 -58 186 -91 99 -84 65 -168 -99 -244 -99 -46 -195 -64 -350 -64
-161 0 -274 23 -382 80 -119 62 -150 136 -87 207 33 38 149 101 205 112 19 3
34 10 34 14 0 7 -99 141 -103 139 -1 0 -18 -6 -37 -13z"/>
</g>
</svg>
