<svg id="Capa_1" data-name="Capa 1" xmlns="http://www.w3.org/2000/svg" viewBox="0 0 91.24 91.77"><defs><style>.cls-1{fill:#fff;}.cls-2{fill:#64b661;}</style></defs><path class="cls-1" d="M4.38,94.72c.39-1.43.74-2.75,1.1-4.07q2.58-9.41,5.16-18.8a1.56,1.56,0,0,0-.15-1.28,43.91,43.91,0,0,1-5.32-28c2.2-15.46,10.31-27,24-34.4a45.22,45.22,0,0,1,53,8A43.59,43.59,0,0,1,95.3,42.86c1.82,17.24-4.21,31.36-17.9,42-8.62,6.69-18.6,9.54-29.5,9a44.47,44.47,0,0,1-18.79-5.14,1.74,1.74,0,0,0-1.34-.16q-11.23,3-22.48,5.91ZM16.87,82.33c.29-.06.48-.09.67-.14,4-1.06,8.05-2.09,12.06-3.18a2.06,2.06,0,0,1,1.72.26,35.5,35.5,0,0,0,26.89,4.44,36,36,0,0,0,27.88-39C84.8,32.91,79,23.81,68.92,17.61a35.69,35.69,0,0,0-42.8,4C16.92,30,13.05,40.58,14.38,53a34.94,34.94,0,0,0,5.75,15.54,1.22,1.22,0,0,1,.18,1.14c-1.11,4-2.19,8-3.28,12C17,81.82,16.94,82,16.87,82.33Z" transform="translate(-4.38 -2.95)"/><path class="cls-2" d="M16.87,82.33c.07-.29.11-.51.16-.71,1.09-4,2.17-8,3.28-12a1.22,1.22,0,0,0-.18-1.14A34.94,34.94,0,0,1,14.38,53C13.05,40.58,16.92,30,26.12,21.64a35.69,35.69,0,0,1,42.8-4c10,6.2,15.88,15.3,17.17,27.08a36,36,0,0,1-27.88,39,35.5,35.5,0,0,1-26.89-4.44A2.06,2.06,0,0,0,29.6,79c-4,1.09-8,2.12-12.06,3.18C17.35,82.24,17.16,82.27,16.87,82.33Zm44.64-13a11.65,11.65,0,0,0,5-1c3.59-1.62,5.67-4.22,5.73-8.29a1.94,1.94,0,0,0-1.23-2c-2-.93-4-1.93-5.94-2.88-1-.46-2-.91-3-1.28a1.46,1.46,0,0,0-1.93.64c-1.1,1.41-2.22,2.81-3.36,4.18a1.57,1.57,0,0,1-2.18.52A29.54,29.54,0,0,1,39.77,46.5c-.66-1.12-.6-1.55.28-2.51a14.26,14.26,0,0,0,2.68-3.59,2.18,2.18,0,0,0,.05-1.85c-.89-2.12-1.77-4.25-2.66-6.37-.36-.86-.71-1.71-1.11-2.55a1.93,1.93,0,0,0-2-1.2c-.66,0-1.32,0-2,0A4,4,0,0,0,32,29.71c-3.89,3.91-4.71,8.5-3,13.64a28.06,28.06,0,0,0,4.4,7.82c5.89,8.06,13.13,14.31,22.89,17.23A16.65,16.65,0,0,0,61.51,69.35Z" transform="translate(-4.38 -2.95)"/><path class="cls-1" d="M61.51,69.35a16.65,16.65,0,0,1-5.27-.95c-9.76-2.92-17-9.17-22.89-17.23A28.06,28.06,0,0,1,29,43.35c-1.68-5.14-.86-9.73,3-13.64a4,4,0,0,1,3.09-1.3c.65,0,1.31.05,2,0a1.93,1.93,0,0,1,2,1.2c.4.84.75,1.69,1.11,2.55.89,2.12,1.77,4.25,2.66,6.37a2.18,2.18,0,0,1-.05,1.85A14.26,14.26,0,0,1,40.05,44c-.88,1-.94,1.39-.28,2.51A29.54,29.54,0,0,0,54.63,59.23a1.57,1.57,0,0,0,2.18-.52c1.14-1.37,2.26-2.77,3.36-4.18a1.46,1.46,0,0,1,1.93-.64c1,.37,2,.82,3,1.28,2,.95,3.94,1.95,5.94,2.88a1.94,1.94,0,0,1,1.23,2c-.06,4.07-2.14,6.67-5.73,8.29A11.65,11.65,0,0,1,61.51,69.35Z" transform="translate(-4.38 -2.95)"/></svg>